<svg width="24" height="24" viewBox="0 0 24 24" fill="none" xmlns="http://www.w3.org/2000/svg">
<g id="Actions &#38; UI/times">
<g id="Vector" filter="url(#filter0_i_372_337)">
<path d="M13.408 11.9999L17.708 7.70994C17.8963 7.52164 18.0021 7.26624 18.0021 6.99994C18.0021 6.73364 17.8963 6.47825 17.708 6.28994C17.5197 6.10164 17.2643 5.99585 16.998 5.99585C16.7317 5.99585 16.4763 6.10164 16.288 6.28994L11.998 10.5899L7.70799 6.28994C7.51968 6.10164 7.26429 5.99585 6.99799 5.99585C6.73168 5.99585 6.47629 6.10164 6.28799 6.28994C6.09968 6.47825 5.99389 6.73364 5.99389 6.99994C5.99389 7.26624 6.09968 7.52164 6.28799 7.70994L10.588 11.9999L6.28799 16.2899C6.19426 16.3829 6.11986 16.4935 6.06909 16.6154C6.01833 16.7372 5.99219 16.8679 5.99219 16.9999C5.99219 17.132 6.01833 17.2627 6.06909 17.3845C6.11986 17.5064 6.19426 17.617 6.28799 17.7099C6.38095 17.8037 6.49155 17.8781 6.61341 17.9288C6.73527 17.9796 6.86597 18.0057 6.99799 18.0057C7.13 18.0057 7.2607 17.9796 7.38256 17.9288C7.50442 17.8781 7.61502 17.8037 7.70799 17.7099L11.998 13.4099L16.288 17.7099C16.3809 17.8037 16.4915 17.8781 16.6134 17.9288C16.7353 17.9796 16.866 18.0057 16.998 18.0057C17.13 18.0057 17.2607 17.9796 17.3826 17.9288C17.5044 17.8781 17.615 17.8037 17.708 17.7099C17.8017 17.617 17.8761 17.5064 17.9269 17.3845C17.9776 17.2627 18.0038 17.132 18.0038 16.9999C18.0038 16.8679 17.9776 16.7372 17.9269 16.6154C17.8761 16.4935 17.8017 16.3829 17.708 16.2899L13.408 11.9999Z" fill="white"/>
</g>
</g>
<defs>
<filter id="filter0_i_372_337" x="5.99219" y="5.99585" width="12.0078" height="12.51" filterUnits="userSpaceOnUse" color-interpolation-filters="sRGB">
<feFlood flood-opacity="0" result="BackgroundImageFix"/>
<feBlend mode="normal" in="SourceGraphic" in2="BackgroundImageFix" result="shape"/>
<feColorMatrix in="SourceAlpha" type="matrix" values="0 0 0 0 0 0 0 0 0 0 0 0 0 0 0 0 0 0 127 0" result="hardAlpha"/>
<feOffset dy="0.7"/>
<feGaussianBlur stdDeviation="0.25"/>
<feComposite in2="hardAlpha" operator="arithmetic" k2="-1" k3="1"/>
<feColorMatrix type="matrix" values="0 0 0 0 0 0 0 0 0 0 0 0 0 0 0 0 0 0 0.25 0"/>
<feBlend mode="normal" in2="shape" result="effect1_innerShadow_372_337"/>
</filter>
</defs>
</svg>
