<svg width="318" height="415" viewBox="0 0 318 415" fill="none" xmlns="http://www.w3.org/2000/svg">
<g opacity="0.2">
<mask id="mask0_729_1238" style="mask-type:luminance" maskUnits="userSpaceOnUse" x="-29" y="0" width="441" height="415">
<path d="M-29 -3.05176e-05H411.65V415H-29V-3.05176e-05Z" fill="white"/>
</mask>
<g mask="url(#mask0_729_1238)">
<g opacity="0.630005">
<path d="M357.012 116.293C364.858 80.1712 352.107 40.5624 335.2 7.53162C335.2 7.53162 331.948 1.17255 331.403 0.105743C331.359 0.0194092 331.257 -0.0211487 331.165 0.0107117C318.949 4.28369 306.979 10.0198 296.265 17.2411C270.337 33.7953 247.249 55.9745 233.589 83.5988C215.312 119.681 209.597 161.04 213.769 200.907L214.768 200.77C219.793 165.973 217.268 162.196 221.103 142.79C224.994 123.48 226.97 110.407 238.747 86.4324C251.512 60.4456 275.522 40.0936 302.552 29.0999C308.795 26.592 315.159 24.5291 321.534 22.5844C321.63 22.5555 321.732 22.603 321.77 22.6951C337.115 59.4344 347.533 100.666 333.202 139.315C326.098 159.775 314.286 178.696 299.003 194.101C294.019 199.355 286.728 204.856 280.905 209.373C280.745 209.498 280.862 209.749 281.061 209.71C291.203 207.752 302.493 205.505 312.742 205.618C342.38 205.214 368.465 220.571 384.282 245.399C392.182 257.41 397.683 270.957 401.223 284.858C402.694 290.687 403.85 296.78 404.455 302.771C404.465 302.872 404.396 302.965 404.296 302.984C378.634 308 352.185 304.649 327.572 296.371C301.986 287.767 278.241 274.221 256.284 258.673C238.075 245.779 220.038 231.845 205.168 215.139C193.624 202.168 182.078 189.2 170.532 176.231C165.247 170.295 160.188 164.155 154.184 159.053C148.149 153.925 141.14 149.029 135.544 143.486C115.606 128.488 92.8601 116.862 68.1511 112.38C60.7178 111.032 53.1697 110.33 45.6153 110.284C20.4213 110.217 -5.18458 112.93 -28.8772 121.925C-28.9642 121.958 -29.0164 122.048 -29.0013 122.14C-27.066 133.826 -23.953 145.482 -20.1497 156.759C5.87332 233.924 38.8608 256.799 113.82 262.328C115.027 262.418 116.223 262.558 117.42 262.654C117.602 262.668 117.663 262.908 117.506 263.001C73.7517 288.811 56.9748 317.469 67.5431 362.701C71.0204 377.913 82.2164 402.082 93.8939 414.89C93.9548 414.956 94.0285 415.021 94.1149 414.993C137.281 401.087 169.775 381.769 187.416 346.693C203.993 313.81 203.815 275.768 199.065 239.459C199.065 239.459 196.324 257.304 194.861 266.046C190.497 291.835 182.853 317.401 170.062 340.278C153.793 370.051 127.673 392.78 96.9755 406.817C96.8856 406.858 96.7777 406.826 96.7261 406.742C95.4318 404.635 94.1915 402.413 93.0237 400.21C84.8096 384.282 79.2206 366.768 77.9176 348.848C74.7837 310.171 94.2547 279.391 128.802 262.689L138.293 257.921C138.474 257.831 138.41 257.559 138.208 257.557L127.423 257.442C110.162 256.988 92.7835 252.61 76.9128 245.873C26.0225 224.394 5.36976 183.461 -7.74412 133.604C-7.76849 133.51 -7.7186 133.41 -7.62926 133.373C15.2761 123.91 35.4473 118.206 61.7087 120.142C87.6197 121.643 111.878 132.276 132.797 147.218C157.317 164.732 175.205 188.537 194.558 211.299C203.505 221.473 211.984 231.491 221.654 240.877C242.274 260.891 262.231 282.004 286.497 297.753C295.716 303.736 305.443 308.703 315.696 312.66C344.049 323.38 380.947 321.724 409.052 308.634L411.535 307.488C411.616 307.451 411.656 307.363 411.644 307.275C407.745 277.175 404.07 266.272 396.796 252.578C378.325 217.805 353.602 194.408 300.668 201.151C300.487 201.174 300.39 200.945 300.525 200.823C301.418 200.023 302.304 199.213 303.186 198.385C326.478 176.415 350.771 147.747 357.012 116.293Z" fill="url(#paint0_linear_729_1238)"/>
</g>
</g>
</g>
<defs>
<linearGradient id="paint0_linear_729_1238" x1="412.254" y1="306.128" x2="-15.2914" y2="94.3759" gradientUnits="userSpaceOnUse">
<stop stop-color="#D77429"/>
<stop offset="0.336332" stop-color="#5D323C"/>
<stop offset="0.510706" stop-color="#5D323C"/>
<stop offset="0.642018" stop-color="#5D323C"/>
<stop offset="1" stop-color="#D77429"/>
</linearGradient>
</defs>
</svg>
